<svg version="1.1" id="Layer_1" xmlns="http://www.w3.org/2000/svg" xmlns:xlink="http://www.w3.org/1999/xlink" x="0px" y="0px"
	 width="100%" viewBox="0 0 664 582" enable-background="new 0 0 664 582" xml:space="preserve">
<path fill="#000000" opacity="1.000000" stroke="none" 
	d="
M285.672546,1.328197 
	C410.932465,1.000000 535.864929,1.021986 660.797241,0.893319 
	C664.525940,0.889478 665.089539,1.811081 665.087036,5.292851 
	C664.985168,147.216064 665.000000,289.139374 665.000000,431.531342 
	C663.743774,433.314636 662.616577,434.087311 660.394226,433.722351 
	C645.063171,431.204681 630.489014,426.055756 616.109436,420.549713 
	C608.526062,417.646057 601.277710,413.576782 594.382202,409.072174 
	C588.286377,405.089996 583.817993,399.383514 578.696228,394.401184 
	C563.485107,379.603973 550.255188,363.100098 537.336609,346.270447 
	C529.387817,335.915253 520.547241,326.175140 512.397705,315.962097 
	C502.628876,303.719635 492.435516,291.819366 482.926910,279.357269 
	C471.997284,265.032684 459.878601,251.654037 448.567474,237.631622 
	C438.851440,225.586655 429.518982,213.206635 419.697266,201.265961 
	C406.422516,185.127319 393.530090,168.669220 379.890900,152.825272 
	C373.478302,145.376144 367.858429,137.282852 361.579590,129.700104 
	C346.392487,111.359146 331.778748,92.546043 316.423340,74.340492 
	C309.932648,66.645065 304.124725,58.413261 297.621704,50.730450 
	C294.236542,46.731121 292.874542,46.630619 289.647247,50.765652 
	C282.920654,59.384270 276.705536,68.416183 270.026825,77.032257 
	C260.545685,89.263718 252.259369,102.399597 241.990982,114.023926 
	C241.141785,114.985252 240.545746,116.170845 239.786713,117.210678 
	C238.088760,119.536873 235.161118,119.479782 233.299438,117.139061 
	C225.459198,107.281410 220.505508,96.196396 218.681107,83.670609 
	C218.099792,79.679443 218.831253,75.407997 216.207458,71.392464 
	C215.464401,70.221474 215.598648,69.326225 215.892395,68.073433 
	C217.543243,66.156128 217.721451,64.346504 217.885696,62.282669 
	C218.603516,53.263020 222.596695,45.457317 227.253433,37.860992 
	C232.887268,28.670723 241.001373,22.446066 250.175659,17.207449 
	C258.536285,12.433436 267.154053,8.377472 276.453400,5.799525 
	C279.625824,4.920066 282.942749,4.238209 285.672546,1.328197 
z"/>
<path fill="#000000" opacity="1.000000" stroke="none" 
	d="
M276.327911,582.643066 
	C185.760590,583.000000 95.521141,582.976135 5.281868,583.089783 
	C1.777333,583.094177 0.879123,582.494568 0.892068,578.790222 
	C1.056129,531.839661 1.000000,484.888397 1.000000,437.468658 
	C2.821509,434.886932 5.200785,434.389526 7.856353,434.533508 
	C16.336256,434.993408 24.828257,435.128845 33.315830,435.070587 
	C54.274654,434.926575 75.234673,435.182495 96.190514,434.910156 
	C100.520256,434.853882 104.997375,434.947021 109.484322,433.220001 
	C104.112076,429.943848 99.456673,425.836273 93.615852,423.422119 
	C88.010864,421.105469 83.070122,417.761261 82.055862,411.102356 
	C81.274277,405.971039 84.036072,401.957916 86.897072,398.113434 
	C99.236107,381.532715 111.353760,364.789612 123.619484,348.155243 
	C133.567932,334.663452 143.270645,320.974670 153.529709,307.732727 
	C161.983185,296.821411 169.620453,285.335266 178.133362,274.476929 
	C185.753326,264.757599 192.500153,254.367737 200.175446,244.686050 
	C207.075699,235.982025 212.962448,226.540970 219.893784,217.881866 
	C226.127090,210.094757 231.917282,201.970245 238.250687,194.258163 
	C240.470596,191.555008 241.789749,191.328888 244.357529,193.882126 
	C254.100967,203.570374 263.405670,213.620880 272.384674,224.039230 
	C282.123993,235.339844 292.370209,246.208847 301.867554,257.733002 
	C312.688782,270.863556 324.293274,283.330414 334.790985,296.739349 
	C343.934631,308.418701 353.753540,319.585785 362.708679,331.380829 
	C373.408020,345.473083 382.831818,360.556030 388.822815,377.369202 
	C392.695648,388.238007 395.857086,399.262726 397.072906,410.951935 
	C398.128357,421.099457 398.061249,431.185059 397.961151,441.273926 
	C397.838837,453.600342 395.210480,465.743958 391.325531,477.335724 
	C384.311096,498.265106 373.866302,517.243286 356.627075,531.868713 
	C344.893341,541.823303 331.619171,548.514526 316.515137,550.968262 
	C308.501373,552.270142 300.289520,550.775635 292.179596,550.235535 
	C277.890930,549.283875 265.190277,543.614380 253.124756,536.491394 
	C241.193619,529.447754 232.514999,519.002380 225.257217,507.432800 
	C219.705063,498.582123 216.043045,488.768646 214.697525,478.458038 
	C212.194107,459.274719 217.243820,442.551147 232.617996,429.756195 
	C234.583618,428.120331 238.445145,426.993622 237.714798,424.286316 
	C236.874359,421.170929 232.759720,422.272797 230.270416,422.167999 
	C216.860458,421.603302 203.435669,421.413116 190.002563,421.536438 
	C179.131256,421.636292 168.269272,422.602173 157.374786,421.745361 
	C152.913239,421.394501 149.751587,425.430847 150.163467,431.113831 
	C150.725861,438.872894 151.731110,446.593475 153.177536,454.269470 
	C156.576996,472.310150 162.181320,489.523407 172.035049,505.105560 
	C177.189087,513.255859 182.218811,521.508057 188.563843,528.874695 
	C201.123276,543.456238 216.092834,555.120056 232.637238,564.648010 
	C245.257492,571.916016 259.092499,576.318848 273.440979,579.059875 
	C274.625305,579.286133 278.098083,578.783142 276.327911,582.643066 
z"/>
<path fill="#000000" opacity="1.000000" stroke="none" 
	d="
M1.360649,431.352844 
	C1.000000,289.099152 1.014556,147.198257 0.914200,5.297472 
	C0.911749,1.830640 1.453047,0.881358 5.196917,0.890305 
	C69.151894,1.043138 133.107346,1.000000 197.531342,1.000000 
	C200.926834,3.363870 198.646286,5.041493 197.179840,6.730812 
	C191.313126,13.489227 186.314240,20.595886 183.291885,29.284752 
	C177.411575,46.189869 175.142807,63.415558 176.028885,81.217857 
	C176.771942,96.146240 181.334900,109.757622 188.718079,122.661377 
	C194.523590,132.807739 200.962051,142.508118 207.701065,152.032623 
	C209.405487,154.441544 209.811081,156.694092 208.064926,159.517395 
	C202.073669,169.204651 194.406723,177.626511 187.825485,186.864410 
	C177.170090,201.821045 165.916656,216.339294 155.042618,231.138504 
	C141.723541,249.265305 127.982689,267.084015 114.603111,285.169952 
	C105.548042,297.410248 96.507927,309.674011 87.243530,321.743225 
	C73.585808,339.535767 60.650578,357.859161 46.890507,375.575378 
	C36.245773,389.280487 25.909737,403.239532 15.928410,417.450012 
	C12.835547,421.853333 9.028927,425.716309 6.184879,430.337189 
	C5.323324,431.737030 3.890531,433.514526 1.360649,431.352844 
z"/>
<path fill="#000000" opacity="1.000000" stroke="none" 
	d="
M664.658752,436.676147 
	C665.000000,484.124359 664.921753,531.249084 665.131226,578.372437 
	C665.150391,582.681213 663.939453,583.098938 660.135315,583.094971 
	C548.069397,582.977905 436.003357,583.000000 323.468658,583.000000 
	C320.465607,580.202332 322.829376,580.075073 324.809265,579.488037 
	C334.921295,576.489929 345.232819,574.150879 354.968140,569.921021 
	C380.365051,558.886414 402.551788,543.550293 419.494476,521.377502 
	C428.680939,509.355194 434.672485,495.644928 440.038239,481.521881 
	C444.863007,468.822784 447.807526,455.735382 448.787628,442.414825 
	C449.884521,427.506531 448.602051,412.406006 444.289246,398.043854 
	C440.950806,386.926605 437.167877,375.862122 431.728149,365.407471 
	C424.689514,351.879852 416.510681,339.095673 407.791656,326.670227 
	C401.968292,318.371460 394.668823,311.200897 388.698914,302.919312 
	C380.500671,291.546478 371.280365,280.919373 362.747772,269.787567 
	C349.578217,252.606369 335.095917,236.508972 321.917664,219.323029 
	C312.475983,207.009979 301.434387,195.947144 291.629761,183.877121 
	C284.889435,175.579361 277.601746,167.751770 270.800598,159.498215 
	C267.775055,155.826538 269.004761,153.272980 271.163269,150.390076 
	C279.022766,139.892883 287.114868,129.573654 295.171539,119.227676 
	C298.097809,115.469948 301.021484,115.056969 304.058167,118.544388 
	C312.644287,128.404922 321.039307,138.432678 329.052002,148.771667 
	C335.332062,156.875076 341.799530,164.830780 348.217377,172.823105 
	C355.798737,182.264313 363.454498,191.655228 371.211639,200.945999 
	C380.356415,211.898743 389.385162,222.936813 398.279266,234.090500 
	C405.793152,243.513321 413.506073,252.761612 421.521515,261.774048 
	C426.908447,267.831024 430.978302,275.060699 436.245544,281.135193 
	C446.095520,292.494781 455.509583,304.195648 465.029694,315.812927 
	C476.240051,329.492798 487.674927,342.990479 498.722534,356.799377 
	C506.655701,366.715424 514.287292,376.872864 522.784180,386.325775 
	C530.569092,394.986572 537.028198,404.700012 544.583923,413.557220 
	C549.563416,419.394409 554.482239,425.286316 559.560669,431.041473 
	C562.373657,434.229187 565.833191,434.930450 570.068176,434.932770 
	C591.560791,434.944672 613.054932,435.264984 634.544250,434.747192 
	C642.403015,434.557861 650.258423,434.507019 658.116028,434.519928 
	C660.331238,434.523590 662.657654,434.370483 664.658752,436.676147 
z"/>
<path fill="#161616" opacity="1.000000" stroke="none" 
	d="
M665.000000,436.583344 
	C632.835632,437.028656 600.670044,436.924042 568.507874,437.204010 
	C562.438049,437.256866 558.507690,434.730499 554.974121,430.361755 
	C538.040283,409.425537 521.021851,388.557678 504.054047,367.648804 
	C493.996613,355.255341 484.008026,342.805908 473.933899,330.426056 
	C458.089569,310.955353 442.174286,291.542419 426.335114,272.067474 
	C409.239563,251.047745 392.235352,229.953629 375.122101,208.948349 
	C351.502075,179.956482 327.819916,151.015274 304.157166,122.058243 
	C300.993591,118.186867 299.615112,118.138298 296.546997,121.977943 
	C288.553986,131.980927 280.659821,142.063080 272.633972,152.039474 
	C270.815369,154.300049 271.001587,156.055801 272.826111,158.186432 
	C280.168152,166.760376 287.240814,175.569565 294.716095,184.023819 
	C307.926453,198.964294 320.654755,214.304398 333.304413,229.714081 
	C351.025391,251.301514 368.872498,272.794403 385.669861,295.113983 
	C397.563599,310.917847 410.879395,325.625793 421.455322,342.453461 
	C433.874939,362.214478 443.637939,383.079346 448.342987,406.005890 
	C454.942780,438.164917 449.957581,468.851257 435.494507,498.136841 
	C432.178467,504.851349 428.987427,511.622925 424.929657,517.960632 
	C416.000214,531.907288 403.787842,542.444824 390.747284,552.362976 
	C376.364380,563.301941 360.232056,570.588501 343.483429,576.748718 
	C339.141296,578.345825 334.470490,579.041138 329.964539,580.204529 
	C327.738953,580.779114 325.284973,580.732666 323.229431,582.733521 
	C307.645782,583.000000 292.291534,583.000000 276.468658,583.000000 
	C271.466492,579.319763 265.617401,579.881409 260.431946,578.406128 
	C236.327866,571.548523 215.915512,558.912964 197.968719,541.531189 
	C183.053055,527.085083 170.989731,510.842896 162.386276,491.983093 
	C156.197281,478.416138 152.288589,464.174500 150.116669,449.472748 
	C149.049744,442.250702 148.283844,434.953461 147.942459,427.663971 
	C147.627838,420.946442 148.652283,420.138519 155.339920,420.127502 
	C180.664154,420.085876 205.988495,420.117645 231.312805,420.098755 
	C234.976593,420.096039 238.640656,419.981293 242.303864,419.889496 
	C243.962341,419.847931 245.838120,419.439850 246.417877,421.639679 
	C246.947342,423.648743 245.462067,424.645966 244.015472,425.561890 
	C241.486298,427.163147 238.840363,428.606995 236.444611,430.387604 
	C218.466370,443.750000 211.861206,463.735443 218.575974,485.729462 
	C228.440765,518.041260 249.978745,538.620483 282.763489,546.363464 
	C304.227264,551.432678 325.519012,550.391418 344.802490,537.845703 
	C358.424835,528.983093 369.213928,517.273865 377.237152,503.181488 
	C389.485046,481.668671 395.672241,458.618347 395.981720,433.669769 
	C396.225006,414.054016 393.607880,395.271179 386.390228,377.034393 
	C378.073395,356.020325 365.075958,338.003265 350.968689,320.669708 
	C336.075592,302.370544 321.275757,283.990570 306.089722,265.936432 
	C295.833527,253.743240 284.914520,242.109818 274.411926,230.120941 
	C265.002014,219.379349 255.875214,208.399826 245.759323,198.278198 
	C241.565369,194.081863 240.965973,193.741211 237.300262,198.665512 
	C228.662460,210.269058 220.107300,221.934128 211.474945,233.541763 
	C192.319763,259.299042 173.046143,284.968781 153.994049,310.801971 
	C137.215942,333.551849 120.689056,356.486938 104.017090,379.315277 
	C98.821533,386.429352 93.527069,393.471405 88.255821,400.529938 
	C81.639671,409.389404 83.066452,415.819183 93.116898,420.377014 
	C100.499893,423.725159 106.829750,429.278198 115.143074,430.721069 
	C116.886467,431.023712 118.644272,432.340363 118.222511,434.633484 
	C117.789879,436.985718 115.737022,437.095947 113.893425,437.107880 
	C104.563972,437.168365 95.234070,437.185730 85.904366,437.175415 
	C57.915024,437.144501 29.925709,437.093719 1.468192,437.025330 
	C1.000000,435.285645 1.000000,433.571289 1.000000,431.428467 
	C4.177850,430.053986 5.560635,427.177795 7.311062,424.836884 
	C21.357109,406.052826 35.241039,387.147491 49.291485,368.366760 
	C70.413559,340.133575 91.686287,312.013062 112.787643,283.764496 
	C127.021622,264.709320 141.002914,245.465500 155.220932,226.398285 
	C170.425064,206.008621 185.942551,185.850662 200.994095,165.349884 
	C209.344955,153.975693 208.521362,157.499939 201.058762,146.563950 
	C190.369904,130.900070 179.731857,115.161919 175.723755,96.063782 
	C173.335220,84.682709 173.666321,73.178337 174.218201,61.772339 
	C174.698547,51.844639 176.939407,42.030190 179.878555,32.442390 
	C183.055847,22.077665 188.382477,12.997124 195.552567,4.927433 
	C196.423553,3.947184 197.046555,2.746591 197.892242,1.324056 
	C227.020889,1.000000 256.041779,1.000000 285.531342,1.000000 
	C287.394348,6.404788 283.394592,7.233457 279.787109,7.919613 
	C267.973450,10.166617 257.320160,15.083917 247.302216,21.546541 
	C235.267502,29.310181 227.268494,40.257816 221.921356,53.401176 
	C220.119156,57.831005 220.841431,62.654324 219.040314,67.419250 
	C215.716980,70.035439 214.127457,69.389626 213.633728,65.416222 
	C213.070801,60.885975 213.559647,56.350494 215.158569,52.115356 
	C221.019913,36.590221 228.438782,22.285845 244.769730,15.015204 
	C249.001740,13.131093 252.298096,9.470672 257.083801,8.170590 
	C255.740601,6.946468 254.307419,7.542149 253.042480,7.536125 
	C240.543625,7.476608 227.998199,8.169610 215.558258,7.311909 
	C203.102264,6.453101 195.540070,13.195477 191.118484,22.799683 
	C181.391220,43.928493 177.748077,66.448730 181.585663,89.571098 
	C183.490723,101.049515 187.941986,111.700966 194.217224,121.889160 
	C199.883209,131.088165 205.565292,140.233566 211.694977,149.134003 
	C215.218445,154.250214 213.992981,162.041412 208.802673,168.079391 
	C200.866531,177.311584 194.181702,187.467667 186.766068,197.057617 
	C180.579483,205.058167 174.654663,213.282669 168.303085,221.179169 
	C161.862823,229.185959 155.884476,237.638046 150.014008,246.113190 
	C141.194000,258.846619 130.745728,270.377716 122.143112,283.216187 
	C115.094414,293.735657 106.333931,302.877655 99.408012,313.482513 
	C95.716980,319.134125 91.396698,324.485809 87.286720,329.900848 
	C78.344231,341.682892 68.944725,353.157349 60.812160,365.539734 
	C55.860668,373.078705 49.130314,379.235901 44.286621,386.782623 
	C35.933529,399.797150 25.218866,411.062378 17.063179,424.201996 
	C14.990881,427.540710 15.705051,429.461548 19.563478,430.226624 
	C21.203255,430.551758 22.883158,430.491119 24.549295,430.492310 
	C45.047852,430.507172 65.546455,430.517456 86.044891,430.467499 
	C87.940117,430.462891 90.060699,431.048492 91.893509,429.082764 
	C89.231422,426.286041 85.546257,424.957092 82.957947,422.124878 
	C76.582619,415.148926 75.463852,406.708435 80.677162,398.845001 
	C89.418091,385.660736 99.268982,373.271210 108.499733,360.439453 
	C115.594139,350.577393 122.475281,340.527863 129.928513,330.963226 
	C135.984848,323.191193 141.938736,315.476929 146.587097,306.769318 
	C147.842590,304.417389 150.358887,303.040497 152.220963,301.133667 
	C157.267319,295.965973 161.000946,289.840057 165.111893,283.981354 
	C175.797623,268.752716 186.927902,253.856201 198.341354,239.161942 
	C202.505814,233.800369 206.684982,228.409607 209.351181,221.971710 
	C211.278000,217.319153 215.457001,214.090652 218.792267,210.458496 
	C224.221588,204.545853 229.012619,198.174286 233.890854,191.854630 
	C238.014481,186.512543 241.936371,185.985779 247.416672,190.209000 
	C251.811142,193.595413 254.742065,198.437164 259.022003,201.876099 
	C268.215179,209.262833 274.216797,219.495499 282.425232,227.721954 
	C289.482239,234.794449 295.972748,242.363647 302.093231,250.192398 
	C308.971375,258.990265 316.552338,267.128204 324.064240,275.330536 
	C336.320374,288.713165 345.978699,304.124451 357.766541,317.858856 
	C360.362640,320.883728 363.306671,323.556122 365.818756,326.705170 
	C373.849182,336.771790 379.845703,348.165039 386.384827,359.106262 
	C390.705505,366.335632 393.278748,374.900726 395.985779,383.107941 
	C402.400330,402.555695 403.157471,422.640839 402.486267,442.868530 
	C402.034943,456.469757 399.492920,469.900330 394.654877,482.389740 
	C389.853302,494.785034 384.140717,506.802429 376.180695,518.051025 
	C362.139923,537.892456 342.715240,548.282410 320.887115,555.902222 
	C317.829132,556.969727 314.582611,556.687805 311.459534,556.387085 
	C302.346375,555.509460 293.233734,554.773682 284.080170,554.410522 
	C276.883179,554.124878 270.882782,549.939575 264.407959,547.446472 
	C251.692352,542.550415 240.801468,534.946106 231.712967,524.462646 
	C221.213943,512.352234 213.637100,498.755371 210.731537,483.212921 
	C207.314072,464.932373 210.153961,447.451477 222.377808,432.441467 
	C223.410217,431.173767 224.897720,429.922699 224.092896,428.068512 
	C223.383377,426.433868 221.619446,426.653290 220.153046,426.490021 
	C206.864731,425.010468 193.581482,425.041656 180.271530,426.335175 
	C174.634842,426.882996 168.942383,426.320984 163.281967,426.564636 
	C156.629410,426.850983 154.659515,429.128784 155.272400,435.687042 
	C157.259827,456.954285 162.077896,477.562653 172.744751,496.155304 
	C179.231049,507.461121 186.455231,518.361084 194.997452,528.513000 
	C205.547897,541.051453 219.094574,549.453186 232.004913,558.657776 
	C241.163528,565.187500 252.394943,568.221375 263.236816,571.582397 
	C285.120575,578.366272 307.232544,578.835144 329.224884,573.178711 
	C339.121735,570.633240 349.259338,568.195374 358.414612,563.163269 
	C373.997101,554.598572 389.422119,546.015564 402.162170,533.101562 
	C413.160919,521.952698 422.952423,510.073120 429.159607,495.729614 
	C433.767273,485.082245 438.411865,474.316345 440.361298,462.729248 
	C440.834473,459.916748 441.778320,457.254486 442.325623,454.475372 
	C445.131592,440.227631 443.647827,426.030029 442.177216,411.785858 
	C440.980194,400.191345 436.225189,389.637115 432.544586,378.864441 
	C428.686157,367.571259 422.274902,357.246338 415.170807,347.556061 
	C410.930206,341.771698 408.923309,334.648010 403.790344,329.419159 
	C393.954224,319.399200 386.790680,307.199829 377.612305,296.709595 
	C369.722656,287.692322 362.541718,278.117828 355.250275,268.710419 
	C345.773560,256.483490 334.439148,245.735809 325.996277,232.835175 
	C319.364349,222.701660 310.956879,214.249573 303.038727,205.385910 
	C291.086639,192.006592 280.205994,177.759521 268.370087,164.305252 
	C263.274902,158.513382 263.029968,152.422409 267.919281,146.232773 
	C275.557068,136.563705 282.879791,126.658218 290.378571,116.885551 
	C295.440033,110.289284 301.566528,110.112686 307.779175,115.591682 
	C317.738525,124.374878 324.802826,135.479279 332.928741,145.745514 
	C342.116852,157.353622 351.367584,168.913055 360.595978,180.489655 
	C370.343567,192.717667 380.915955,204.244431 390.659821,216.490662 
	C400.797394,229.231674 409.804077,243.022690 421.745453,254.160049 
	C428.500336,260.460175 432.756592,268.230865 438.108948,275.384552 
	C443.469696,282.549500 449.620422,289.158478 455.262482,296.137268 
	C468.133789,312.058197 480.835846,328.144562 494.360748,343.490540 
	C504.156860,354.605621 512.083801,367.144409 522.360046,377.876953 
	C532.364685,388.325745 540.211975,400.616882 549.397949,411.786163 
	C554.055481,417.449310 559.189270,422.680328 564.703430,427.530914 
	C566.806091,429.380493 569.237366,430.350220 571.992126,430.382294 
	C589.655457,430.587921 607.319397,430.556000 624.983093,430.399506 
	C625.467224,430.395203 625.961609,430.287872 626.374268,429.848602 
	C625.896240,428.521942 624.568604,428.509979 623.548950,428.313904 
	C617.074585,427.069031 611.555542,423.604889 605.613892,421.088348 
	C590.491943,414.683624 579.873413,403.218048 569.148682,391.600250 
	C565.439941,387.582642 561.419434,383.801025 557.052795,380.451569 
	C556.124023,379.739105 555.142822,379.097748 554.468567,378.125061 
	C540.256897,357.624268 524.509644,338.354126 508.557434,319.184021 
	C498.480225,307.074066 488.469818,294.831818 479.073273,282.123779 
	C468.971375,268.461761 457.332581,256.051727 446.201141,243.228333 
	C441.214294,237.483521 436.616608,231.371368 432.244690,225.063431 
	C426.961823,217.441238 420.296143,210.794968 414.455292,203.548279 
	C409.351501,197.216080 403.962036,191.077332 399.647522,184.134689 
	C398.589447,182.432159 397.551208,180.678986 396.071594,179.334930 
	C382.544159,167.046799 373.402283,151.165237 361.651825,137.449615 
	C346.057190,119.246864 332.250763,99.595581 316.005402,81.929550 
	C309.606384,74.970963 303.843262,67.446236 298.306549,59.760666 
	C295.002289,55.173985 293.857452,55.212452 289.750793,59.158096 
	C286.126404,62.640411 283.026947,66.599731 280.243286,70.711205 
	C268.773865,87.651665 256.241730,103.791901 243.722610,119.946388 
	C240.254791,124.421181 233.460876,124.846786 229.821793,120.503403 
	C218.823090,107.376122 213.730118,92.056015 213.530411,75.023643 
	C213.514709,73.684769 213.576416,72.326904 214.383575,71.181122 
	C215.531631,69.551445 216.856689,68.815079 218.701340,70.919846 
	C220.721786,74.599937 220.430527,78.414139 220.760284,81.981102 
	C221.808380,93.318512 226.501175,103.063278 232.778732,112.248695 
	C236.102448,117.112038 237.032333,117.181061 240.599777,112.401611 
	C253.336960,95.337112 266.019958,78.232170 278.739105,61.154205 
	C282.215576,56.486374 285.629486,51.764393 289.288605,47.242420 
	C292.490662,43.285271 294.547058,43.294029 297.685089,47.166283 
	C312.121490,64.980423 326.463287,82.871262 340.895782,100.688606 
	C358.980347,123.014595 377.148102,145.273193 395.227142,167.603638 
	C408.715790,184.264297 422.070984,201.033066 435.575500,217.680771 
	C452.007446,237.937180 468.556549,258.098541 485.012177,278.335785 
	C498.952209,295.479340 512.638977,312.832916 526.793762,329.796570 
	C539.885193,345.485840 552.134094,361.860474 565.750000,377.123779 
	C575.941406,388.548340 585.837830,400.464172 598.725281,408.796967 
	C615.955566,419.937714 635.449951,425.842743 655.478760,429.914764 
	C658.405823,430.509857 661.305237,431.241364 664.608704,431.954865 
	C665.000000,433.388885 665.000000,434.777802 665.000000,436.583344 
z"/>
<path fill="#040404" opacity="1.000000" stroke="none" 
	d="
M218.906448,70.808121 
	C215.943848,72.777939 216.014954,75.514908 216.272827,78.205727 
	C217.644287,92.517433 221.371216,105.934677 230.829636,117.277031 
	C234.548096,121.736107 238.417374,121.438622 242.379105,117.129463 
	C253.344742,105.202187 261.372040,91.082603 271.699524,78.631828 
	C278.085114,70.933395 283.313385,62.093666 289.763092,54.255390 
	C293.378845,49.861191 295.219482,49.747223 298.356628,54.608665 
	C306.675079,67.499367 317.261292,78.560013 326.970093,90.333206 
	C336.498596,101.887794 345.423309,113.959808 355.293152,125.207893 
	C365.410156,136.737640 373.847626,149.525696 383.701782,161.249680 
	C393.905609,173.389603 404.649292,185.089890 413.693390,198.237534 
	C418.843353,205.724121 425.431671,212.238083 431.526917,219.051697 
	C435.643829,223.653824 438.411743,229.173813 442.171265,234.057495 
	C448.283905,241.997833 455.184296,249.193588 461.718536,256.700531 
	C474.957703,271.910522 486.827240,288.183136 499.521729,303.806702 
	C511.465271,318.506042 523.695068,332.972565 535.677551,347.640686 
	C539.255371,352.020386 542.465942,356.704010 545.773071,361.300079 
	C554.406555,373.298370 564.815674,383.683685 575.276123,394.036224 
	C579.641113,398.356201 583.777954,402.906067 588.061462,407.309662 
	C588.980469,408.254425 589.976318,409.221680 591.120972,409.834869 
	C603.112000,416.259033 614.414612,424.162598 628.193054,426.750671 
	C630.760193,427.232849 635.054321,427.529083 634.570251,430.931519 
	C634.061951,434.503754 629.863892,433.027344 627.283020,433.046936 
	C610.785217,433.172150 594.236328,432.314789 577.805176,433.362640 
	C567.542664,434.017151 561.379761,429.248810 555.250549,422.579926 
	C547.585876,414.240295 540.724304,405.326263 533.977600,396.227173 
	C526.876099,386.649628 518.073242,378.345612 510.788513,368.888336 
	C504.500946,360.725677 498.169159,352.632050 491.665253,344.636230 
	C484.522308,335.854797 476.857727,327.524933 469.869019,318.614594 
	C461.042358,307.360931 452.401031,295.887756 442.691864,285.425995 
	C436.000946,278.216370 432.543579,268.814758 425.716797,262.112946 
	C419.286438,255.800308 413.686096,248.830933 407.501678,242.367783 
	C400.328461,234.871323 395.028931,225.979965 388.394073,218.063278 
	C378.474457,206.227203 368.273804,194.600891 358.730621,182.438873 
	C349.083801,170.144714 339.262390,157.987732 329.566864,145.731598 
	C321.865051,135.995758 314.615570,125.886887 305.569580,117.280540 
	C301.494080,113.403130 296.617554,113.507187 293.054993,118.047844 
	C285.248444,127.997635 277.551300,138.035263 269.939575,148.135086 
	C266.123505,153.198563 266.403442,157.786774 270.524353,162.674042 
	C280.482391,174.483932 290.174164,186.539566 300.349304,198.131775 
	C304.656311,203.038620 308.256256,208.678070 313.545776,212.885147 
	C317.939026,216.379440 321.124420,221.171616 324.313965,225.920593 
	C331.927551,237.256775 341.744873,246.865799 350.121216,257.600830 
	C357.762421,267.393677 365.984589,276.741821 372.966980,287.060760 
	C374.898438,289.915192 377.924774,292.017975 379.931244,294.834320 
	C389.018005,307.588562 399.906677,319.017120 408.709106,331.840485 
	C415.876465,342.281860 422.506378,353.303070 428.904633,364.376129 
	C434.769379,374.525879 437.568665,385.621582 441.569672,396.273132 
	C445.213928,405.974823 446.302124,416.659973 446.568085,427.224884 
	C446.878571,439.559662 446.429993,451.716614 443.189972,463.804810 
	C437.848633,483.732727 431.069763,503.075684 418.369873,519.478516 
	C408.607452,532.087341 397.351807,543.803528 383.596008,552.039185 
	C369.721863,560.345642 355.873718,568.666687 339.746613,573.109985 
	C327.069427,576.602844 314.545746,579.476074 301.542358,579.570862 
	C289.084564,579.661743 276.606567,579.010193 264.544006,575.016479 
	C254.118683,571.564880 243.731216,568.084595 233.806046,563.324402 
	C230.291840,561.638977 227.370255,559.145813 224.372742,556.800659 
	C215.860764,550.141296 206.063141,544.984375 198.716171,537.042969 
	C191.779739,529.545410 184.566437,522.093262 179.839203,512.773865 
	C176.754745,506.693115 172.070999,501.656738 168.958008,495.487030 
	C159.195084,476.137543 154.298767,455.557770 152.214783,434.181976 
	C151.494598,426.795044 154.114517,423.857971 161.439316,423.932404 
	C176.770874,424.088104 192.051376,422.187561 207.388412,422.897430 
	C213.873932,423.197571 220.355408,423.590179 226.836258,423.981781 
	C228.147247,424.061005 229.693558,424.009949 230.365143,425.401276 
	C231.225906,427.184448 229.478317,428.024963 228.659286,429.185089 
	C225.224411,434.050446 220.861023,438.116577 218.302628,443.770813 
	C207.774231,467.039368 211.709717,488.610748 224.450729,509.753418 
	C229.966370,518.906189 236.980240,526.533142 244.857407,533.434143 
	C248.306488,536.455750 252.510941,538.812683 256.706482,540.746521 
	C267.816132,545.867432 278.549927,552.200684 291.458221,552.007446 
	C296.268127,551.935486 301.146851,552.295959 305.895691,553.066345 
	C322.564545,555.770325 335.836853,547.546753 349.249207,539.855103 
	C355.333954,536.365662 360.476562,531.529297 365.749786,526.947449 
	C370.719543,522.629272 373.201782,516.403503 377.172333,511.272339 
	C386.588593,499.103790 390.966217,484.627350 395.064911,470.022675 
	C401.270538,447.910461 401.254822,425.581055 397.816742,403.161041 
	C396.383179,393.812714 393.181183,384.856110 390.350372,375.798309 
	C385.841003,361.369446 376.615021,349.670502 369.656250,336.687317 
	C366.873383,331.495209 362.528076,327.142822 358.545532,322.645203 
	C351.829559,315.060669 345.274109,307.267365 339.371155,299.044983 
	C330.351837,286.481720 320.163788,275.006226 309.458557,263.901886 
	C304.507202,258.765961 300.475098,252.780792 295.996857,247.225769 
	C287.942352,237.234573 278.353088,228.632370 270.694519,218.351288 
	C263.990936,209.352249 255.211502,202.367783 247.639191,194.210693 
	C242.411118,188.578888 239.586121,189.110718 234.893188,195.260773 
	C228.242111,203.976898 221.343018,212.487991 213.693451,220.362030 
	C210.939865,223.196396 210.638138,227.284546 208.292480,230.424210 
	C198.342636,243.742188 188.629242,257.279724 178.363815,270.310059 
	C170.316666,280.524689 164.792618,292.588562 155.320999,301.593872 
	C148.293488,308.275391 144.740494,317.279846 138.722198,324.550964 
	C123.110825,343.412109 110.223343,364.303802 94.708031,383.240692 
	C90.506699,388.368530 87.021545,394.101959 83.402107,399.683533 
	C77.365616,408.992554 80.397797,419.418579 90.451546,424.389709 
	C92.689270,425.496124 94.990608,426.480865 97.184296,427.666595 
	C98.375191,428.310303 99.395264,429.303925 98.927872,430.897461 
	C98.547340,432.194885 97.406357,432.644989 96.222198,432.777557 
	C94.571007,432.962402 92.901352,433.060425 91.239578,433.060791 
	C68.241180,433.066223 45.242542,433.098999 22.244631,432.987335 
	C18.370869,432.968536 13.389862,434.113831 11.336305,429.953186 
	C9.300112,425.827667 14.413930,423.962280 16.168858,420.972687 
	C23.840748,407.903168 33.707237,396.375031 42.880295,384.459656 
	C55.153599,368.517181 66.522331,351.904633 79.207932,336.260559 
	C88.716286,324.534668 97.074982,311.881805 106.081360,299.742432 
	C121.721748,278.661224 138.124344,258.155365 153.294098,236.713348 
	C160.390594,226.682693 168.238464,217.186554 175.622177,207.355331 
	C184.388275,195.683533 193.007721,183.901657 201.727936,172.195221 
	C202.918823,170.596527 204.321609,169.155289 205.631744,167.645859 
	C212.193542,160.085983 212.098358,154.291031 206.320190,146.191559 
	C195.885178,131.564377 185.832993,116.614525 180.952454,99.032440 
	C175.369263,78.919044 176.544250,58.845943 182.400711,38.950974 
	C183.434662,35.438446 184.823730,32.014088 185.629333,28.454090 
	C187.337021,20.907667 192.378586,15.560149 197.336685,10.182096 
	C200.478287,6.774402 204.335587,4.817334 209.259918,4.859704 
	C225.924194,5.003084 242.590408,4.917870 259.255890,4.923863 
	C259.922089,4.924103 260.596375,4.905262 261.252716,4.996962 
	C262.517426,5.173657 264.193359,4.918679 264.410675,6.709446 
	C264.580841,8.111524 263.253448,8.742183 262.178558,9.049230 
	C255.479324,10.962865 250.118179,15.378078 244.103333,18.564342 
	C227.153488,27.543251 220.042618,43.026546 216.311569,60.688583 
	C215.799347,63.113426 215.865204,65.742149 218.625275,67.624924 
	C218.913574,68.656494 218.916641,69.516914 218.906448,70.808121 
z"/>
</svg>